<svg width="1200" height="825" viewBox="0 0 1200 825" fill="none" xmlns="http://www.w3.org/2000/svg">
  <rect width="1200" height="825" fill="#F5EFE5"/>
  <rect x="78" y="78" width="1044" height="669" rx="34" fill="#FBF7F1" stroke="#DED1C0" stroke-width="2"/>
  <rect x="132" y="132" width="936" height="284" rx="28" fill="#F1E8DB"/>
  <rect x="186" y="188" width="300" height="172" rx="24" fill="#FBF7F1"/>
  <rect x="528" y="188" width="154" height="56" rx="16" fill="#FBF7F1" stroke="#1F2937" stroke-width="4"/>
  <rect x="726" y="188" width="154" height="56" rx="16" fill="#FBF7F1" stroke="#C97A55" stroke-width="4"/>
  <rect x="528" y="276" width="352" height="56" rx="16" fill="#FBF7F1" stroke="#1F2937" stroke-width="4"/>
  <path d="M486 216H528" stroke="#1F2937" stroke-width="6" stroke-linecap="round"/>
  <path d="M650 304H758" stroke="#C97A55" stroke-width="6" stroke-linecap="round"/>
  <circle cx="945" cy="274" r="84" fill="#E5D8C4"/>
  <circle cx="945" cy="274" r="48" fill="#F8F2E8"/>
  <path d="M878 294C897 268 922 244 956 244C994 244 1018 296 1053 296C1066 296 1080 292 1092 284" stroke="#1F2937" stroke-width="8" stroke-linecap="round"/>
  <path d="M864 362H1040" stroke="#C97A55" stroke-width="10" stroke-linecap="round"/>
  <rect x="132" y="470" width="936" height="223" rx="28" fill="#FBF7F1" stroke="#E6D8C5" stroke-width="2"/>
  <path d="M210 550H576" stroke="#1F2937" stroke-width="16" stroke-linecap="round"/>
  <path d="M210 604H512" stroke="#5B6678" stroke-width="16" stroke-linecap="round"/>
  <path d="M678 532H1001" stroke="#1F2937" stroke-width="16" stroke-linecap="round"/>
  <path d="M678 586H942" stroke="#5B6678" stroke-width="16" stroke-linecap="round"/>
  <path d="M186 438H1014" stroke="#DED1C0" stroke-width="4" stroke-linecap="round"/>
</svg>
